<?xml version="1.0" standalone="no"?><!DOCTYPE svg PUBLIC "-//W3C//DTD SVG 1.1//EN" "http://www.w3.org/Graphics/SVG/1.1/DTD/svg11.dtd"><svg t="1755140615806" class="icon" viewBox="0 0 1024 1024" version="1.1" xmlns="http://www.w3.org/2000/svg" p-id="4993" xmlns:xlink="http://www.w3.org/1999/xlink" width="200" height="200"><path d="M224 324c0-26.6 21.4-48 48-48h459c9.8 0 19.2 3 27 8.8 4 3 9.8 0 9.6-5-0.2-11.4-0.4-18.6-0.4-43.2 0-41.6-34.4-76.6-76.2-76.6h-0.4c-11.4-0.8-21.6-8-25.8-18.6-18-45.2-64.6-77.2-112.8-77.2-42 0-68.4 14-88 36.6-8.8 10-23.6 11.8-34.8 4.8-14.6-9.2-32.2-14.2-51-14.2-28.8 0-54.4 14.2-71.6 34.8-8 9.8-20.8 14-33.2 11.8-10.4-2-25.2-3.6-45.4-3.6-50 0-100 33.2-100 84.8v8c0 57.6 32 45.8 32 83.6v101.6c0 26.8-22.4 38.6-22.4 70.4 0 17.6 16 33.6 33.6 33.6H224V324z m548 580H220c-15.4 0-28 12.6-28 28s12.6 28 28 28h552c15.4 0 28-12.6 28-28s-12.6-28-28-28z" p-id="4994" fill="#ffffff"></path><path d="M800 388h-64v-48c0-17.6-14.4-32-32-32H288c-17.6 0-32 14.4-32 32v427.6c0 24.2-2.2 36.4-6.4 60.2l-0.2 1c-1.6 9.4 0.4 19 5.6 27 6.8 10.2 18.2 16.4 30.6 16.4h427.8c8.2 0 16.2-2.8 22.2-8.2 9.4-8.2 13-20.6 10.4-32-5.4-23.6-9-35.6-9.6-59.8H800c52.8 0 96-43.2 96-96v-192c0-53-43.2-96.2-96-96.2z m40 288c0 22-18 40-40 40h-64V444h64c22 0 40 18 40 40v192z" p-id="4995" fill="#ffffff"></path></svg>