<?xml version="1.0" standalone="no"?><!DOCTYPE svg PUBLIC "-//W3C//DTD SVG 1.1//EN" "http://www.w3.org/Graphics/SVG/1.1/DTD/svg11.dtd"><svg t="1755140477768" class="icon" viewBox="0 0 1024 1024" version="1.1" xmlns="http://www.w3.org/2000/svg" p-id="4370" xmlns:xlink="http://www.w3.org/1999/xlink" width="200" height="200"><path d="M896 735V258.2c0-18.8-15.8-34.2-34.4-34.2H162.4c-18.6 0-34.4 15.2-34.4 34.2v476.8H31.8c0 19.8 19.8 37.6 37.8 45.4C91.4 789.6 128 800 168 800h688c40 0 76.4-9 96.6-17.6 19-8 39.6-26.8 39.6-47.4H896zM512 240c4.4 0 8 3.6 8 8s-3.6 8-8 8-8-3.6-8-8 3.6-8 8-8zM164 272.4h696c2.2 0 4 1.8 4 4v422.6c0 2.2-1.8 4-4 4H164c-2.2 0-4-1.8-4-4V276.4c0-2.4 1.8-4 4-4z m432.6 478.6h-169.2c-10.4 0-19.4-12-19.4-15h208c0 3-6 15-19.4 15z" p-id="4371" fill="#ffffff"></path></svg>