<?xml version="1.0" standalone="no"?><!DOCTYPE svg PUBLIC "-//W3C//DTD SVG 1.1//EN" "http://www.w3.org/Graphics/SVG/1.1/DTD/svg11.dtd"><svg t="1755140809760" class="icon" viewBox="0 0 1024 1024" version="1.1" xmlns="http://www.w3.org/2000/svg" p-id="5624" xmlns:xlink="http://www.w3.org/1999/xlink" width="200" height="200"><path d="M789.2 682.4c-59 0-106.8 47.8-106.8 106.8s47.8 106.8 106.8 106.8 106.8-47.8 106.8-106.8-47.8-106.8-106.8-106.8z m-277.2 0c-59 0-106.8 47.8-106.8 106.8S453 896 512 896s106.8-47.8 106.8-106.8-47.8-106.8-106.8-106.8z m-277.2 0c-59 0-106.8 47.8-106.8 106.8S175.8 896 234.8 896s106.8-47.8 106.8-106.8-47.8-106.8-106.8-106.8z m554.4-277.2c-59 0-106.8 47.8-106.8 106.8s47.8 106.8 106.8 106.8S896 571 896 512s-47.8-106.8-106.8-106.8z m-277.2 0c-59 0-106.8 47.8-106.8 106.8s47.8 106.8 106.8 106.8 106.8-47.8 106.8-106.8-47.8-106.8-106.8-106.8z m-277.2 0C175.8 405.2 128 453 128 512s47.8 106.8 106.8 106.8 106.8-47.8 106.8-106.8-47.8-106.8-106.8-106.8zM789.2 128c-59 0-106.8 47.8-106.8 106.8s47.8 106.8 106.8 106.8 106.8-47.8 106.8-106.8S848.2 128 789.2 128zM512 128c-59 0-106.8 47.8-106.8 106.8s47.8 106.8 106.8 106.8 106.8-47.8 106.8-106.8S571 128 512 128z m-277.2 0C175.8 128 128 175.8 128 234.8s47.8 106.8 106.8 106.8 106.8-47.8 106.8-106.8S293.8 128 234.8 128z" p-id="5625" fill="#ffffff"></path></svg>