<?xml version="1.0" encoding="UTF-8"?>
<svg id="_图层_2" data-name="图层 2" xmlns="http://www.w3.org/2000/svg" xmlns:xlink="http://www.w3.org/1999/xlink" viewBox="0 0 1469.19 373.56">
  <defs>
    <style>
      .cls-1 {
        fill: none;
      }

      .cls-2 {
        mask: url(#mask);
      }

      .cls-3, .cls-4 {
        fill: #23b5ee;
      }

      .cls-5 {
        clip-path: url(#clippath-1);
      }

      .cls-6 {
        clip-path: url(#clippath-2);
      }

      .cls-7 {
        fill: #fff;
      }

      .cls-8 {
        fill: #191919;
        stroke: #191919;
        stroke-miterlimit: 8;
        stroke-width: .59px;
      }

      .cls-9 {
        clip-path: url(#clippath);
      }

      .cls-4 {
        stroke: #23b5ee;
        stroke-miterlimit: 7.12;
        stroke-width: .36px;
      }
    </style>
    <clipPath id="clippath">
      <rect class="cls-1" width="373.56" height="373.56" rx="74.71" ry="74.71"/>
    </clipPath>
    <clipPath id="clippath-1">
      <circle class="cls-1" cx="186.78" cy="186.78" r="150.31"/>
    </clipPath>
    <clipPath id="clippath-2">
      <circle class="cls-1" cx="186.78" cy="186.78" r="150.31"/>
    </clipPath>
    <mask id="mask" x="36.47" y="36.47" width="300.63" height="300.63" maskUnits="userSpaceOnUse">
      <g id="shape_vUzRyBHMOV_mask" data-name="shape vUzRyBHMOV mask">
        <g>
          <circle class="cls-7" cx="186.78" cy="186.78" r="147.31"/>
          <g class="cls-6">
            <circle class="cls-1" cx="186.78" cy="186.78" r="150.31"/>
          </g>
        </g>
      </g>
    </mask>
  </defs>
  <g id="_图层_1-2" data-name="图层 1">
    <g id="shape_s1dWrBUT21" data-name="shape s1dWrBUT21">
      <g>
        <path class="cls-8" d="M478.96,306.9h-35.14l27.34-218.72c1.08-9.72,4.49-17.53,10.24-23.44,5.75-5.92,12.19-8.88,19.34-8.88h0c6.11,0,11.8,2.26,17.08,6.78,5.29,4.51,9.17,11.16,11.62,19.96h0l51.68,169.54,49.12-166.02c3.03-10,7.24-17.41,12.64-22.24s11.24-7.24,17.52-7.24h0c7.32,0,13.67,2.48,19.04,7.44,5.36,4.97,8.39,11.37,9.08,19.2h0l29.48,223.62h-34.8l-24.16-201.5-56.24,183.58c-1.71,6-4.72,10.85-9.04,14.54-4.31,3.68-9.01,5.52-14.1,5.52h0c-10.11,0-17.25-6.45-21.42-19.36h0l-56.14-184.96-23.14,202.18Z"/>
        <path class="cls-8" d="M898.51,306.9h-31.64v-97.28c-.45-8.51-2.94-16.21-7.46-23.1-4.51-6.88-10.86-12.29-19.06-16.24-8.2-3.95-17.84-5.92-28.92-5.92h0c-7.77,0-15.86,1.8-24.26,5.4-8.4,3.6-15.59,9.67-21.56,18.22-5.97,8.55-9.07,19.65-9.3,33.3h0c0,12.23,2.59,22.85,7.76,31.88,5.17,9.03,12,15.91,20.48,20.66,8.49,4.75,17.45,7.12,26.88,7.12h0c16.23,0,30.62-7.86,43.18-23.58h0v37.28c-6.68,4.23-11.52,7.17-14.52,8.84-3,1.65-7.03,3.17-12.08,4.54s-11.53,2.17-19.42,2.4h0c-13.88,0-27.22-3.66-40.02-10.98-12.8-7.31-23.2-17.75-31.2-31.32-8-13.57-12-29.19-12-46.84h0c0-15.88,3.39-30.38,10.16-43.5,6.77-13.11,16.85-23.53,30.22-31.28,13.36-7.75,29.41-11.62,48.16-11.62h0c13.43,0,25.5,2.07,36.22,6.22,10.71,4.15,19.63,9.8,26.78,16.96,7.13,7.17,12.51,15.41,16.14,24.7,3.64,9.28,5.46,19.06,5.46,29.34h0v94.8Z"/>
        <path class="cls-8" d="M927.21,223.34h0c.8-22.92,8.47-42.43,23.02-58.54,14.53-16.12,34.71-24.92,60.54-26.4h30.86v29.48h-26.66c-7.25,0-15.18,1.93-23.78,5.78-8.6,3.87-15.91,10.04-21.94,18.52-6.03,8.48-9.04,19.09-9.04,31.84h0c0,8,2.11,16.14,6.34,24.42,4.23,8.29,10.61,15.19,19.16,20.7,8.55,5.52,18.79,8.28,30.72,8.28h25.2v29.48h-30.86c-17.88-.92-33.13-5.72-45.76-14.4-12.63-8.68-22.08-19.29-28.36-31.84-6.29-12.55-9.44-24.99-9.44-37.32Z"/>
        <path class="cls-8" d="M1071.12,234.22V60.84h32.3v160.44c.75,11.95,2.71,21.9,5.88,29.86,3.17,7.97,8.36,14.12,15.56,18.44,7.2,4.31,17.03,6.46,29.48,6.46h31.62v30.86h-40.02c-10,0-20.53-2.4-31.58-7.2-11.05-4.8-20.71-12.65-28.98-23.56-8.25-10.92-13.01-24.89-14.26-41.92h0Z"/>
        <path class="cls-8" d="M1215.36,99.74h0c.35-5.03,2.32-9.27,5.92-12.72,3.6-3.45,7.83-5.18,12.68-5.18h0c4.87,0,9.13,1.77,12.78,5.3,3.65,3.55,5.48,8.01,5.48,13.38h0c0,5.71-1.7,10.23-5.1,13.58-3.4,3.35-7.53,5.02-12.38,5.02h0c-5.2,0-9.73-1.77-13.58-5.32-3.87-3.55-5.8-8.23-5.8-14.06ZM1249.06,306.9h-30.86v-168.5h30.86v168.5Z"/>
        <path class="cls-8" d="M1296.88,222.64V60.84h30.86v158.3c0,11.31,2.24,21.66,6.72,31.06,4.48,9.4,10.88,16.87,19.2,22.42,8.32,5.55,17.93,8.32,28.84,8.32h0c12.12,0,22.36-2.97,30.72-8.92,8.37-5.95,14.61-13.49,18.7-22.64,4.08-9.13,6.12-18.27,6.12-27.42h0c-.52-12.91-3.43-23.69-8.74-32.36-5.32-8.65-12.02-15.02-20.1-19.1-8.08-4.09-16.49-6.14-25.24-6.14h0c-8.85,0-16.48,1.22-22.88,3.66-6.4,2.43-13.4,6.01-21,10.74h0v-32.3c12.4-7.72,26.31-11.58,41.74-11.58h0c12.05,0,23.38,1.96,33.98,5.88,10.6,3.91,19.9,9.57,27.9,17,8,7.44,14.2,16.31,18.6,26.62,4.4,10.32,6.6,21.67,6.6,34.06h0c0,16.07-3.41,31.15-10.24,45.26-6.83,14.12-16.79,25.43-29.88,33.94-13.08,8.52-28.51,12.78-46.28,12.78h0c-16.4-.23-31.13-4.36-44.18-12.4-13.05-8.03-23.23-18.71-30.52-32.04-7.28-13.35-10.92-27.79-10.92-43.34h0Z"/>
      </g>
    </g>
    <g id="shape_5tIIsquUMD" data-name="shape 5tIIsquUMD">
      <g>
        <g id="shape_dHcrofPhfj" data-name="shape dHcrofPhfj">
          <g>
            <rect class="cls-3" x="3.74" y="3.74" width="366.09" height="366.09" rx="74.71" ry="74.71"/>
            <g class="cls-9">
              <rect class="cls-1" width="373.56" height="373.56" rx="74.71" ry="74.71"/>
            </g>
          </g>
        </g>
        <g id="shape_VAcn2vZROb" data-name="shape VAcn2vZROb">
          <g>
            <circle class="cls-7" cx="186.78" cy="186.78" r="147.31"/>
            <g class="cls-5">
              <circle class="cls-1" cx="186.78" cy="186.78" r="150.31"/>
            </g>
          </g>
        </g>
        <g class="cls-2">
          <g id="shape_ZxNvM7MRza" data-name="shape ZxNvM7MRza">
            <path class="cls-4" d="M218.71,109.33h0c.85-2.85,2.45-5.26,4.8-7.24,2.34-1.99,5.07-2.99,8.2-2.99h19.8c3.69,0,6.81,1.31,9.37,3.93,2.55,2.63,3.82,5.72,3.82,9.27h0v157.15h-32.57v-126.26c0-.43-.18-.64-.53-.64s-.6.14-.75.43h0l-27.89,116.46c-.71,2.99-2.28,5.4-4.7,7.24-2.41,1.85-5.1,2.78-8.08,2.78h-15.76c-2.99,0-5.65-.93-7.99-2.78-2.35-1.84-3.87-4.25-4.57-7.24h0l-27.91-115.61c-.14-.28-.39-.43-.73-.43s-.53.21-.53.64h0v125.41h-20.03V112.3c0-3.55,1.28-6.64,3.84-9.27,2.55-2.62,5.67-3.93,9.37-3.93h19.59c3.26,0,6.07,1,8.41,2.99,2.34,1.98,3.86,4.39,4.57,7.24h0l30.24,125.62,30.01-125.62Z"/>
          </g>
        </g>
      </g>
    </g>
  </g>
</svg>