<?xml version="1.0" encoding="UTF-8"?>
<svg id="_图层_2" data-name="图层 2" xmlns="http://www.w3.org/2000/svg" viewBox="0 0 1465.16 366.09">
  <defs>
    <style>
      .cls-1 {
        fill: #fff;
        fill-rule: evenodd;
      }
    </style>
  </defs>
  <g id="_图层_1-2" data-name="图层 1">
    <path class="cls-1" d="M299.02.39l7.42,1.13,7.16,1.84,6.86,2.51,6.53,3.15,6.16,3.74,5.75,4.3,5.31,4.82,4.82,5.31,4.3,5.75,3.74,6.16,3.15,6.53,2.51,6.86,1.84,7.16,1.13,7.42.39,7.64v216.67l-.39,7.64-1.13,7.42-1.84,7.16-2.51,6.86-3.15,6.53-3.74,6.16-4.3,5.75-4.82,5.31-5.31,4.82-5.75,4.3-6.16,3.74-6.53,3.15-6.86,2.51-7.16,1.84-7.42,1.13-7.64.39H74.71l-7.64-.39-7.42-1.13-7.16-1.84-6.86-2.51-6.53-3.15-6.16-3.74-5.75-4.3-5.31-4.82-4.82-5.31-4.3-5.75-3.74-6.16-3.15-6.53-2.51-6.86-1.84-7.16-1.13-7.42-.39-7.64V74.71l.39-7.64,1.13-7.42,1.84-7.16,2.51-6.86,3.15-6.53,3.74-6.16,4.3-5.75,4.82-5.31,5.31-4.82,5.75-4.3,6.16-3.74,6.53-3.15,6.86-2.51,7.16-1.84,7.42-1.13,7.64-.39h216.67l7.64.39ZM175.82,35.69l-9.57.79-9.59,1.44-9.58,2.11-9.54,2.8-9.48,3.5-9.39,4.21-9.27,4.94-8.34,5.19-7.91,5.69-7.47,6.16-7.01,6.6-6.54,7.01-6.05,7.4-5.55,7.77-5.03,8.1-4.5,8.41-3.95,8.69-3.38,8.95-2.8,9.17-2.21,9.37-1.6,9.55-.97,9.7-.33,9.82.36,10.5,1.05,10.24,1.71,9.96,2.35,9.66,2.96,9.35,3.55,9.02,4.1,8.68,4.63,8.32,5.14,7.95,5.61,7.56,6.06,7.16,6.49,6.74,6.88,6.3,7.25,5.85,7.59,5.38,7.91,4.9,8.2,4.4,8.46,3.89,8.69,3.36,8.9,2.81,9.08,2.25,9.23,1.67,9.36,1.08,9.45.47,9.53-.15,9.57-.79,9.59-1.44,9.58-2.11,9.54-2.8,9.48-3.5,9.39-4.21,9.27-4.94,8.34-5.19,7.91-5.69,7.47-6.16,7.01-6.6,6.54-7.01,6.05-7.4,5.55-7.77,5.03-8.1,4.5-8.41,3.95-8.69,3.38-8.95,2.8-9.17,2.21-9.37,1.6-9.55.97-9.7.33-9.82-.36-10.5-1.05-10.24-1.71-9.96-2.35-9.66-2.96-9.35-3.55-9.02-4.1-8.68-4.63-8.32-5.14-7.95-5.61-7.56-6.06-7.16-6.49-6.74-6.88-6.3-7.25-5.85-7.59-5.38-7.91-4.9-8.2-4.4-8.46-3.89-8.69-3.36-8.9-2.81-9.08-2.25-9.23-1.67-9.36-1.08-9.45-.47-9.53.15ZM1324,215.4l.42,8.3,1.26,7.94,2.1,7.59,2.94,7.23,3.72,6.69,4.44,5.97,5.16,5.24,5.88,4.52,6.48,3.64,6.97,2.6,7.45,1.56,7.94.52,8.74-.56,8.03-1.67,7.33-2.79,6.62-3.9,5.88-4.76,5.08-5.36,4.27-5.96,3.47-6.56,2.68-6.85,1.91-6.85,1.15-6.86.38-6.86-.84-9.28-1.74-8.49-2.63-7.69-3.53-6.9-4.25-6.06-4.77-5.2-5.28-4.35-5.8-3.49-6.12-2.69-6.25-1.92-6.37-1.15-6.5-.38-6.41.23-5.95.69-5.49,1.14-5.03,1.6-4.91,2.04-5.14,2.47-5.36,2.9-5.59,3.33v-32.3l9.58-5.07,10.15-3.62,10.72-2.17,11.29-.72,8.9.37,8.63,1.1,8.36,1.84,8.09,2.57,7.71,3.26,7.22,3.92,6.73,4.58,6.24,5.24,5.66,5.85,4.99,6.39,4.31,6.92,3.64,7.46,2.89,7.93,2.06,8.32,1.24,8.71.41,9.1-.64,11.87-1.92,11.5-3.2,11.13-4.48,10.76-5.71,10.06-6.88,9.01-8.06,7.96-9.23,6.91-5.02,3-5.23,2.6-5.45,2.2-5.68,1.8-5.9,1.4-6.11,1-6.33.6-6.56.2-11.99-.9-11.36-2.37-10.73-3.83-10.1-5.3-9.25-6.52-8.17-7.51-7.09-8.51-6.01-9.5-4.78-10.22-3.41-10.63-2.05-11.04-.68-11.45V57.1h30.86v158.3ZM819.99,131.53l9.31,1.17,8.8,1.94,8.29,2.72,7.7,3.39,7.03,3.96,6.36,4.52,5.69,5.09,5.02,5.58,4.36,5.98,3.71,6.37,3.05,6.77,2.39,7.05,1.71,7.24,1.02,7.43.34,7.62v94.8h-31.64v-97.28l-.72-6.23-1.48-5.93-2.25-5.62-3.01-5.32-3.73-4.89-4.42-4.34-5.11-3.78-5.8-3.23-6.42-2.59-6.96-1.85-7.5-1.11-8.04-.37-5.89.34-6.01,1.01-6.12,1.69-6.24,2.36-6.07,3.16-5.62,4.09-5.16,5.02-4.71,5.95-3.94,6.89-2.86,7.85-1.79,8.8-.71,9.76.48,8.87,1.46,8.27,2.42,7.67,3.39,7.07,4.19,6.37,4.81,5.57,5.43,4.76,6.05,3.96,6.46,3.11,6.63,2.23,6.81,1.33,6.98.45,6-.37,5.83-1.11,5.66-1.84,5.48-2.58,5.31-3.32,5.14-4.05,4.97-4.79,4.8-5.53v37.28l-4.67,2.93-3.97,2.45-3.28,1.97-2.6,1.49-5.27,2.38-6.81,2.17-4.06.92-4.59.71-5.12.49-5.65.28-10.31-.69-10.11-2.06-9.9-3.43-9.7-4.8-9.15-6.07-8.25-7.24-7.35-8.42-6.45-9.59-2.81-5.19-2.44-5.38-2.06-5.57-1.69-5.76-1.31-5.95-.94-6.14-.56-6.33-.19-6.52.63-11.65,1.91-11.13,3.17-10.62,4.45-10.1,5.7-9.33,6.94-8.32,8.17-7.32,9.41-6.31,5.14-2.72,5.39-2.36,5.64-2,5.89-1.63,6.15-1.27,6.4-.91,6.65-.54,6.9-.18,9.82.39ZM501.51,52.55l4.35,1.27,4.19,2.12,4.04,2.97,3.7,3.78,3.17,4.59,2.64,5.39,2.11,6.2,51.68,169.54,49.12-166.02,2.49-7.01,2.94-6.05,3.38-5.07,3.83-4.11,4.13-3.17,4.3-2.26,4.46-1.36,4.63-.45,5.31.46,4.94,1.39,4.58,2.33,4.21,3.26,3.58,4,2.71,4.53,1.83,5.07.96,5.6,29.48,223.62h-34.8l-24.16-201.5-56.24,183.58-1.53,4.28-2.01,3.85-2.51,3.42-2.99,2.99-3.3,2.41-3.45,1.73-3.6,1.03-3.75.34-3.65-.3-3.37-.91-3.09-1.51-2.82-2.12-2.54-2.72-2.26-3.33-1.98-3.93-1.7-4.54-56.14-184.96-23.14,202.18h-35.14l27.34-218.72,1.25-6.93,2.12-6.22,3-5.5,3.87-4.79,4.44-3.89,4.7-2.77,4.97-1.67,5.23-.55,4.5.42ZM1245.32,303.16h-30.86v-168.5h30.86v168.5ZM1099.69,217.54l.79,8.59,1.24,7.84,1.7,7.09,2.15,6.34,2.76,5.64,3.51,4.95,4.27,4.27,5.02,3.58,5.89,2.83,6.88,2.02,7.86,1.21,8.85.4h31.62v30.86h-40.02l-7.6-.45-7.8-1.35-7.99-2.25-8.19-3.15-8.03-4.17-7.51-5.32-6.98-6.46-6.46-7.61-2.93-4.24-2.6-4.52-2.27-4.81-1.95-5.1-1.62-5.38-1.29-5.67-.96-5.96-.63-6.24V57.1h32.3v160.44ZM1037.9,164.14h-26.66l-5.57.36-5.82,1.08-6.07,1.81-6.32,2.53-6.21,3.33-5.73,4.2-5.24,5.06-4.76,5.93-3.96,6.76-2.83,7.56-1.69,8.36-.57,9.16.4,6.03,1.19,6.08,1.98,6.13,2.77,6.18,3.58,5.96,4.39,5.44,5.19,4.91,6.01,4.39,6.73,3.62,7.36,2.59,8,1.55,8.63.52h25.2v29.48h-30.86l-6.58-.53-6.34-.89-6.09-1.25-5.84-1.62-5.6-1.98-5.35-2.35-5.1-2.71-4.86-3.07-8.88-6.87-7.68-7.6-6.49-8.32-5.3-9.05-4.13-9.39-2.95-9.35-1.77-9.31-.59-9.27.62-8.44,1.27-8.12,1.91-7.8,2.56-7.48,3.2-7.16,3.84-6.84,4.49-6.52,5.13-6.2,5.71-5.7,6.24-5.02,6.77-4.33,7.3-3.64,7.83-2.96,8.36-2.27,8.89-1.58,9.42-.9h30.86v29.48ZM144.1,95.55l2.19.56,2.02.93,1.85,1.31,2.9,3.3,1.68,3.94,30.24,125.62,30.01-125.62,1.84-3.94,2.96-3.3,1.83-1.31,1.98-.93,2.12-.56,2.27-.19h19.8l2.66.25,2.45.74,2.24,1.23,2.03,1.72,1.67,2.06,1.2,2.23.72,2.4.24,2.57v157.15h-32.57v-126.26l-.13-.48-.4-.16-.75.43-27.89,116.46-.69,2.13-1.01,1.92-1.33,1.7-1.65,1.49-1.86,1.21-1.97.87-2.07.52-2.18.17h-15.76l-2.18-.17-2.06-.52-1.94-.87-1.81-1.21-1.61-1.49-1.3-1.7-.99-1.92-.68-2.13-27.91-115.61-.73-.43-.4.16-.13.48v125.41h-20.03V108.56l.24-2.57.72-2.4,1.2-2.23,1.68-2.06,2.02-1.72,2.24-1.23,2.45-.74,2.67-.25h19.59l2.36.19ZM1233.76,78.43l3.31.99,3.08,1.66,2.85,2.32,2.4,2.83,1.71,3.17,1.03,3.52.34,3.86-.32,4.06-.96,3.62-1.59,3.17-2.23,2.73-2.69,2.2-2.96,1.57-3.23.94-3.5.31-3.77-.33-3.52-1-3.27-1.66-3.02-2.33-2.54-2.87-1.81-3.3-1.09-3.73-.36-4.16.56-3.62,1.18-3.33,1.79-3.03,2.4-2.74,2.82-2.27,3.05-1.62,3.29-.97,3.52-.32,3.54.33Z"/>
  </g>
</svg>